@startuml
title ATM Control - Validate PIN and Withdraw Funds

[*] --> Idle

state Idle
state WaitingForPIN
state ValidatingPIN
state WaitingForCustomerChoice
state ProcessingWithdrawal
state Dispensing
state Printing
state Ejecting
state Confiscating
state Terminating
state ClosedDown

Idle : entry / Display Welcome
ClosedDown : entry / Display System Down

Idle --> WaitingForPIN : Card Inserted / Get PIN


WaitingForPIN --> ValidatingPIN : PIN Entered / Validate PIN
WaitingForPIN --> Confiscating : Card Confiscated / display Confiscated
ValidatingPIN --> WaitingForPIN : Invalid PIN / Invalid PIN Prompt

ValidatingPIN --> Confiscating : Card Stolen, Card Expired /\nConfiscate, Update Status
ValidatingPIN --> Confiscating : Third Invalid PIN /\nConfiscate

ValidatingPIN --> WaitingForCustomerChoice : Valid PIN / Display Menu

WaitingForPIN --> Ejecting : Cancel / Eject
WaitingForCustomerChoice --> Ejecting : Cancel / Eject
ValidatingPIN --> Ejecting : Cancel / Eject

WaitingForCustomerChoice --> ProcessingWithdrawal : Withdrawal Selected /\nRequest Withdrawal, Display Wait

ProcessingWithdrawal --> Dispensing : Withdrawal Approved /\nDispense Cash, Update Status
ProcessingWithdrawal --> Ejecting : Rejected / Eject

Dispensing --> Printing : Cash Dispensed /\nPrint Receipt,\nDisplay Cash Dispensed,\nConfirm Cash Dispensed
Dispensing --> ClosedDown : Insufficient Cash / Eject

Printing --> Ejecting : Receipt Printed / Eject

Ejecting --> Terminating : Card Ejected / Display Ejected
Confiscating --> Terminating : Card Confiscated / Display Confiscated

Terminating --> Idle : After (Elapsed Time)\n[Closedown Not Requested]
[*] --> Idle : After (Elapsed Time)\n[Closedown Not Requested]

ClosedDown --> [*] : After (Elapsed Time)\n[Closedown Not Requested]

@enduml
