@startuml
title Alarm Clock State Diagram

state Off {
  [*] --> SetAlarmTime
}

state ActiveAlarm {
  state Ringing {
    Off --> Ringing : user sets an alarm time
    Ringing --> StoppedByUser : user stops alarm
    Ringing --> NextScheduledAlarm : time passes
  }

  state Stopped {
    [*] --> StoppedByUser : user turns off activated alarm
    Stopped --> ActiveAlarm : next scheduled alarm time
  }
}

ActiveAlarm --> Off : no active alarms
@enduml
