@startuml
[*] --> Waiting for Video Request
Waiting for Video Request --> Identifying User : videoRequest
Identifying User --> Gathering Videos : identifyUser
Gathering Videos --> Adding Video Details : gatherVideos
Adding Video Details --> Sending Videos : addDetails
Sending Videos --> Complete : sendVideos
@enduml
