@startuml
[*] --> UserType

state UserType <<choice>>
UserType --> Registration : [New user]
UserType --> Login : [Registered user]

state "Registration" as Registration {
    UserType --> GettingDetails : [New user]

    state GettingDetails
    state ChoiceReg <<choice>>
    state "Update Database" as UpdateDB
    state EndInvalid <<choice>>

    ChoiceReg --> UpdateDB : [valid]
    ChoiceReg --> EndInvalid : [invalid]

    EndInvalid --> UserType : [invalid]

    UpdateDB --> Login : [verified]
}

Registration : entry / New user
Registration : do / Registration
Registration : exit / After updation

state Login
Login : do / Enter username and password
Login : exit / After verification

Login --> Profile : [valid uname & pwd]

state "Profile" as Profile {
    UserType --> ChoiceProfile : [View or Edit profile]

    state ChoiceProfile <<choice>>
    state "View or Edit profile" as EditProfile
    state "Upload or Accept request" as UploadReq
    state "Search users" as SearchUsers
    state "View current deals" as ViewDeals

    ChoiceProfile --> EditProfile : [edit profile data]
    ChoiceProfile --> UploadReq : [new project]
    ChoiceProfile --> SearchUsers : [search user]
    ChoiceProfile --> ViewDeals : [current deals]


}

Profile : entry / View or Edit profile
Profile : do / Upload or Accept request
Profile : do / Search users
Profile : do / View current deals
Profile : exit / Logout

    EditProfile --> [*] : [Logout]
    UploadReq --> [*] : [Logout]
    SearchUsers --> [*] : [Logout]
    ViewDeals --> [*] : [Logout]

@enduml
