@startuml
title Statechart diagram of the plane lifecycle

[*] --> Order

state Order as "Order"
state Arrival as "Arrival"
state Preparation as "Preparation"
state Operations as "Operations"
state Maintenance as "Maintenance"
state OutOfService as "OutOfService"

Order --> Arrival : plane acquired
Arrival --> Preparation : arrived
Preparation --> Operations : prepared and scheduled flights exist
Operations --> [*] : plane out of service permanently
Operations --> Maintenance : no more scheduled flights or maintenance required
Maintenance --> Preparation : checked and serviced

state Decision as "Decision"
Decision --> Order : new plane
Decision --> OutOfService : plane out of service

@enduml
