@startuml
title Campaign State Machine (Final Version)

[*] --> INITIAL_STATE
INITIAL_STATE --> Commissioned : assignManager; assignStaff

state Commissioned
state Suspended
state Completed
state Paid

Commissioned --> Active : authorized(authorizationCode)\n[contract signed]\n/setCampaignActive
Commissioned --> Completed : campaignCancelled;\ncalculateCosts;\nprepareFinalStatement
state Active {
  state Monitoring {
    Survey --> Evaluation : surveyComplete
    Evaluation --> Survey : runSurvey
    Monitoring --> AdvertPreparation : surveyComplete; advertsReady
  }

  state Running {
    AdvertPreparation --> Scheduling : advertsApproved\n/authorize
    Scheduling --> RunningAdverts : confirmSchedule
    RunningAdverts --> AdvertPreparation : extendCampaign\n/modifyBudget
  }

  state Completed {
    RunningAdverts --> Completed : campaignCompleted
  }
}

Active --> Suspended : suspendCampaign\n/stopAdverts
Suspended --> Active : resumeCampaign

Active --> Completed : campaignCancelled\n/cancelSchedule;\ncalculateCosts;\nprepareFinalStatement
AdvertPreparation --> Completed : campaignCompleted\n/prepareFinalStatement

Completed --> Paid : paymentReceived(payment)\n[paymentDue - payment = 0]
Completed --> Completed : paymentReceived(payment)\n[paymentDue - payment > 0]
Completed --> Paid : paymentReceived(payment)\n[paymentDue - payment < 0]\n/generateRefund

Paid --> [*] : archiveCampaign\n/unassignStaff;\nunassignManager
@enduml
