@startuml
title UML State Chart Diagram

[*] --> ReadyForActivation

ReadyForActivation --> Activated : managerAssigned and staffAssigned and approved and contractSigned
Activated --> Surveying : surveysCarriedOutAndEvaluated
Activated --> AdvertsPreparation : prepareAdverts
Activated --> AdvertsApproval : approveAdverts
Activated --> AdvertsScheduling : scheduleAdverts
Activated --> AdvertsRunning : runAdverts
Activated --> Adjustments : adjustCampaign
Activated --> Paused : pauseCampaign
Activated --> CostsCalculation : calculateCosts
Activated --> FinalStatementPreparation : prepareFinalStatement
Activated --> Completed : allWorkFinished
Completed --> StatementPreparation : completeCampaign
StatementPreparation --> PaymentHandling : handlePayment
PaymentHandling --> Paid : correctPaymentSettled
Paid --> Archiving : archiveCampaign
Archiving --> [*]

@enduml
