@startuml
title Video Suggestion System UML State Machine Diagram

state StartChoice <<choice>>
state UserRequestVideo
state IdentifyUser
state GatherVideos
state AddDetails
state SendSuggestions

[*] --> StartChoice

StartChoice --> UserRequestVideo : User requests video
UserRequestVideo --> IdentifyUser
IdentifyUser --> UserIdentified

state UserIdentified
UserIdentified --> GatherVideos
GatherVideos --> AddDetails
AddDetails --> SendSuggestions
SendSuggestions --> [*]
@enduml
